<svg width="19" height="19" viewBox="0 0 19 19" fill="none" xmlns="http://www.w3.org/2000/svg">
<path d="M16.625 4.74999H15.0417M16.625 9.49999H12.6667M16.625 14.25H12.6667M5.54167 15.8333V10.7359C5.54167 10.5713 5.54167 10.4889 5.5255 10.4102C5.51116 10.3403 5.48745 10.2727 5.455 10.2092C5.41841 10.1376 5.36698 10.0733 5.2641 9.94467L2.65257 6.68028C2.54969 6.55169 2.49825 6.48739 2.46167 6.41579C2.42922 6.35227 2.4055 6.28465 2.39117 6.21478C2.375 6.13602 2.375 6.05368 2.375 5.889V4.43332C2.375 3.98995 2.375 3.76826 2.46128 3.59891C2.53719 3.44995 2.6583 3.32885 2.80726 3.25294C2.9766 3.16666 3.19829 3.16666 3.64167 3.16666H10.6083C11.0517 3.16666 11.2734 3.16666 11.4428 3.25294C11.5917 3.32885 11.7128 3.44995 11.7887 3.59891C11.875 3.76826 11.875 3.98995 11.875 4.43332V5.889C11.875 6.05368 11.875 6.13602 11.8589 6.21478C11.8445 6.28465 11.8208 6.35227 11.7883 6.41579C11.7517 6.48739 11.7003 6.55169 11.5974 6.68028L8.98589 9.94467C8.88305 10.0733 8.8316 10.1376 8.79502 10.2092C8.76256 10.2727 8.73881 10.3403 8.72448 10.4102C8.70833 10.4889 8.70833 10.5713 8.70833 10.7359V13.4583L5.54167 15.8333Z" stroke="#fefefe" stroke-width="2" stroke-linecap="round" stroke-linejoin="round"/>
</svg>
